solid ascii
  facet normal -7.071068e-01 -7.071068e-01 -0.000000e+00
    outer loop
      vertex   -1.800015e+02 1.554839e+02 1.300283e+01
      vertex   -1.800015e+02 1.554839e+02 2.834552e-03
      vertex   -1.795015e+02 1.549839e+02 1.279573e+01
    endloop
  endfacet
  facet normal -7.071068e-01 -7.071068e-01 0.000000e+00
    outer loop
      vertex   -1.795015e+02 1.549839e+02 1.279573e+01
      vertex   -1.800015e+02 1.554839e+02 2.834552e-03
      vertex   -1.795015e+02 1.549839e+02 2.834552e-03
    endloop
  endfacet
  facet normal 0.000000e+00 -1.000000e+00 0.000000e+00
    outer loop
      vertex   -1.795015e+02 1.549839e+02 2.834552e-03
      vertex   -1.505015e+02 1.549839e+02 2.834552e-03
      vertex   -1.795015e+02 1.549839e+02 1.279573e+01
    endloop
  endfacet
  facet normal 0.000000e+00 -1.000000e+00 0.000000e+00
    outer loop
      vertex   -1.795015e+02 1.549839e+02 1.279573e+01
      vertex   -1.505015e+02 1.549839e+02 2.834552e-03
      vertex   -1.505015e+02 1.549839e+02 1.279573e+01
    endloop
  endfacet
  facet normal 0.000000e+00 -1.000000e+00 -0.000000e+00
    outer loop
      vertex   -1.522086e+02 1.549839e+02 1.450283e+01
      vertex   -1.795015e+02 1.549839e+02 1.279573e+01
      vertex   -1.505015e+02 1.549839e+02 1.279573e+01
    endloop
  endfacet
  facet normal 0.000000e+00 -1.000000e+00 0.000000e+00
    outer loop
      vertex   -1.522086e+02 1.549839e+02 1.450283e+01
      vertex   -1.777944e+02 1.549839e+02 1.450283e+01
      vertex   -1.795015e+02 1.549839e+02 1.279573e+01
    endloop
  endfacet
  facet normal 2.220446e-16 2.220446e-16 -1.000000e+00
    outer loop
      vertex   -1.505015e+02 1.549839e+02 2.834552e-03
      vertex   -1.795015e+02 1.549839e+02 2.834552e-03
      vertex   -1.500015e+02 1.554839e+02 2.834552e-03
    endloop
  endfacet
  facet normal 2.368476e-15 -1.264174e-13 -1.000000e+00
    outer loop
      vertex   -1.500015e+02 1.554839e+02 2.834552e-03
      vertex   -1.795015e+02 1.549839e+02 2.834552e-03
      vertex   -1.800015e+02 1.554839e+02 2.834552e-03
    endloop
  endfacet
  facet normal 0.000000e+00 2.026950e-14 -1.000000e+00
    outer loop
      vertex   -1.520015e+02 1.589839e+02 2.834552e-03
      vertex   -1.800015e+02 1.554839e+02 2.834552e-03
      vertex   -1.780015e+02 1.589839e+02 2.834552e-03
    endloop
  endfacet
  facet normal -0.000000e+00 0.000000e+00 -1.000000e+00
    outer loop
      vertex   -1.520015e+02 1.599839e+02 2.834552e-03
      vertex   -1.780015e+02 1.589839e+02 2.834552e-03
      vertex   -1.780015e+02 1.599839e+02 2.834552e-03
    endloop
  endfacet
  facet normal -0.000000e+00 -0.000000e+00 -1.000000e+00
    outer loop
      vertex   -1.520015e+02 1.599839e+02 2.834552e-03
      vertex   -1.520015e+02 1.589839e+02 2.834552e-03
      vertex   -1.780015e+02 1.589839e+02 2.834552e-03
    endloop
  endfacet
  facet normal 3.552714e-14 -3.172066e-17 -1.000000e+00
    outer loop
      vertex   -1.800015e+02 1.554839e+02 2.834552e-03
      vertex   -1.800015e+02 1.589839e+02 2.834552e-03
      vertex   -1.780015e+02 1.589839e+02 2.834552e-03
    endloop
  endfacet
  facet normal -3.649000e-25 -3.172066e-17 -1.000000e+00
    outer loop
      vertex   -1.500015e+02 1.589839e+02 2.834552e-03
      vertex   -1.500015e+02 1.554839e+02 2.834552e-03
      vertex   -1.520015e+02 1.589839e+02 2.834552e-03
    endloop
  endfacet
  facet normal 2.368476e-15 1.321694e-15 -1.000000e+00
    outer loop
      vertex   -1.520015e+02 1.589839e+02 2.834552e-03
      vertex   -1.500015e+02 1.554839e+02 2.834552e-03
      vertex   -1.800015e+02 1.554839e+02 2.834552e-03
    endloop
  endfacet
  facet normal 7.071068e-01 -7.071068e-01 0.000000e+00
    outer loop
      vertex   -1.505015e+02 1.549839e+02 2.834552e-03
      vertex   -1.500015e+02 1.554839e+02 2.834552e-03
      vertex   -1.505015e+02 1.549839e+02 1.279573e+01
    endloop
  endfacet
  facet normal 7.071068e-01 -7.071068e-01 0.000000e+00
    outer loop
      vertex   -1.505015e+02 1.549839e+02 1.279573e+01
      vertex   -1.500015e+02 1.554839e+02 2.834552e-03
      vertex   -1.500015e+02 1.554839e+02 1.300283e+01
    endloop
  endfacet
  facet normal -5.000000e-01 -7.071068e-01 5.000000e-01
    outer loop
      vertex   -1.795015e+02 1.549839e+02 1.279573e+01
      vertex   -1.777944e+02 1.549839e+02 1.450283e+01
      vertex   -1.800015e+02 1.554839e+02 1.300283e+01
    endloop
  endfacet
  facet normal -5.000000e-01 -7.071068e-01 5.000000e-01
    outer loop
      vertex   -1.800015e+02 1.554839e+02 1.300283e+01
      vertex   -1.777944e+02 1.549839e+02 1.450283e+01
      vertex   -1.780015e+02 1.554839e+02 1.500283e+01
    endloop
  endfacet
  facet normal -1.963706e-16 -7.071068e-01 7.071068e-01
    outer loop
      vertex   -1.777944e+02 1.549839e+02 1.450283e+01
      vertex   -1.522086e+02 1.549839e+02 1.450283e+01
      vertex   -1.780015e+02 1.554839e+02 1.500283e+01
    endloop
  endfacet
  facet normal -1.932421e-16 -7.071068e-01 7.071068e-01
    outer loop
      vertex   -1.780015e+02 1.554839e+02 1.500283e+01
      vertex   -1.522086e+02 1.549839e+02 1.450283e+01
      vertex   -1.520015e+02 1.554839e+02 1.500283e+01
    endloop
  endfacet
  facet normal 5.000000e-01 -7.071068e-01 5.000000e-01
    outer loop
      vertex   -1.500015e+02 1.554839e+02 1.300283e+01
      vertex   -1.520015e+02 1.554839e+02 1.500283e+01
      vertex   -1.505015e+02 1.549839e+02 1.279573e+01
    endloop
  endfacet
  facet normal 5.000000e-01 -7.071068e-01 5.000000e-01
    outer loop
      vertex   -1.505015e+02 1.549839e+02 1.279573e+01
      vertex   -1.520015e+02 1.554839e+02 1.500283e+01
      vertex   -1.522086e+02 1.549839e+02 1.450283e+01
    endloop
  endfacet
  facet normal -2.732857e-16 3.552635e-15 1.000000e+00
    outer loop
      vertex   -1.780015e+02 1.554839e+02 1.500283e+01
      vertex   -1.520015e+02 1.554839e+02 1.500283e+01
      vertex   -1.780015e+02 1.559839e+02 1.500283e+01
    endloop
  endfacet
  facet normal -2.049643e-16 7.105270e-15 1.000000e+00
    outer loop
      vertex   -1.780015e+02 1.559839e+02 1.500283e+01
      vertex   -1.520015e+02 1.554839e+02 1.500283e+01
      vertex   -1.520015e+02 1.559839e+02 1.500283e+01
    endloop
  endfacet
  facet normal 7.071068e-01 5.024185e-15 7.071068e-01
    outer loop
      vertex   -1.520015e+02 1.554839e+02 1.500283e+01
      vertex   -1.500015e+02 1.554839e+02 1.300283e+01
      vertex   -1.520015e+02 1.559839e+02 1.500283e+01
    endloop
  endfacet
  facet normal 7.071068e-01 -0.000000e+00 7.071068e-01
    outer loop
      vertex   -1.520015e+02 1.559839e+02 1.500283e+01
      vertex   -1.500015e+02 1.554839e+02 1.300283e+01
      vertex   -1.500015e+02 1.559839e+02 1.300283e+01
    endloop
  endfacet
  facet normal -7.071068e-01 0.000000e+00 7.071068e-01
    outer loop
      vertex   -1.800015e+02 1.554839e+02 1.300283e+01
      vertex   -1.780015e+02 1.554839e+02 1.500283e+01
      vertex   -1.800015e+02 1.559839e+02 1.300283e+01
    endloop
  endfacet
  facet normal -7.071068e-01 2.512092e-15 7.071068e-01
    outer loop
      vertex   -1.800015e+02 1.559839e+02 1.300283e+01
      vertex   -1.780015e+02 1.554839e+02 1.500283e+01
      vertex   -1.780015e+02 1.559839e+02 1.500283e+01
    endloop
  endfacet
  facet normal -1.000000e+00 0.000000e+00 -0.000000e+00
    outer loop
      vertex   -1.800015e+02 1.554839e+02 1.300283e+01
      vertex   -1.800015e+02 1.559839e+02 1.339308e+00
      vertex   -1.800015e+02 1.554839e+02 2.834552e-03
    endloop
  endfacet
  facet normal -1.000000e+00 0.000000e+00 0.000000e+00
    outer loop
      vertex   -1.800015e+02 1.554839e+02 1.300283e+01
      vertex   -1.800015e+02 1.559839e+02 1.300283e+01
      vertex   -1.800015e+02 1.559839e+02 1.339308e+00
    endloop
  endfacet
  facet normal -1.000000e+00 0.000000e+00 -0.000000e+00
    outer loop
      vertex   -1.800015e+02 1.559839e+02 1.339308e+00
      vertex   -1.800015e+02 1.579839e+02 1.339308e+00
      vertex   -1.800015e+02 1.554839e+02 2.834552e-03
    endloop
  endfacet
  facet normal -1.000000e+00 0.000000e+00 0.000000e+00
    outer loop
      vertex   -1.800015e+02 1.554839e+02 2.834552e-03
      vertex   -1.800015e+02 1.579839e+02 1.339308e+00
      vertex   -1.800015e+02 1.589839e+02 2.834552e-03
    endloop
  endfacet
  facet normal -1.000000e+00 -5.299105e-15 -3.964947e-15
    outer loop
      vertex   -1.800015e+02 1.589839e+02 2.834552e-03
      vertex   -1.800015e+02 1.579839e+02 1.339308e+00
      vertex   -1.800015e+02 1.599839e+02 1.300283e+01
    endloop
  endfacet
  facet normal -1.000000e+00 -5.684342e-14 0.000000e+00
    outer loop
      vertex   -1.800015e+02 1.599839e+02 -2.836840e-03
      vertex   -1.800015e+02 1.589839e+02 2.834552e-03
      vertex   -1.800015e+02 1.599839e+02 1.300283e+01
    endloop
  endfacet
  facet normal -1.000000e+00 0.000000e+00 1.002283e-11
    outer loop
      vertex   -1.800015e+02 1.599839e+02 -2.836840e-03
      vertex   -1.800015e+02 1.589839e+02 -2.836840e-03
      vertex   -1.800015e+02 1.589839e+02 2.834552e-03
    endloop
  endfacet
  facet normal -1.000000e+00 -2.842187e-14 0.000000e+00
    outer loop
      vertex   -1.800015e+02 1.579839e+02 1.339308e+00
      vertex   -1.800015e+02 1.579839e+02 1.300283e+01
      vertex   -1.800015e+02 1.599839e+02 1.300283e+01
    endloop
  endfacet
  facet normal -0.000000e+00 1.000000e+00 0.000000e+00
    outer loop
      vertex   -1.780015e+02 1.559839e+02 1.500283e+01
      vertex   -1.520015e+02 1.559839e+02 1.500283e+01
      vertex   -1.800015e+02 1.559839e+02 1.300283e+01
    endloop
  endfacet
  facet normal -0.000000e+00 1.000000e+00 0.000000e+00
    outer loop
      vertex   -1.800015e+02 1.559839e+02 1.300283e+01
      vertex   -1.520015e+02 1.559839e+02 1.500283e+01
      vertex   -1.500015e+02 1.559839e+02 1.300283e+01
    endloop
  endfacet
  facet normal -9.473903e-16 1.000000e+00 2.436802e-15
    outer loop
      vertex   -1.800015e+02 1.559839e+02 1.339308e+00
      vertex   -1.500015e+02 1.559839e+02 1.300283e+01
      vertex   -1.500015e+02 1.559839e+02 1.339308e+00
    endloop
  endfacet
  facet normal 0.000000e+00 1.000000e+00 0.000000e+00
    outer loop
      vertex   -1.800015e+02 1.559839e+02 1.339308e+00
      vertex   -1.800015e+02 1.559839e+02 1.300283e+01
      vertex   -1.500015e+02 1.559839e+02 1.300283e+01
    endloop
  endfacet
  facet normal -7.071068e-01 -2.135338e-14 7.071068e-01
    outer loop
      vertex   -1.800015e+02 1.599839e+02 1.300283e+01
      vertex   -1.800015e+02 1.579839e+02 1.300283e+01
      vertex   -1.780015e+02 1.599839e+02 1.500283e+01
    endloop
  endfacet
  facet normal -7.071068e-01 -6.280405e-16 7.071068e-01
    outer loop
      vertex   -1.780015e+02 1.599839e+02 1.500283e+01
      vertex   -1.800015e+02 1.579839e+02 1.300283e+01
      vertex   -1.780015e+02 1.579839e+02 1.500283e+01
    endloop
  endfacet
  facet normal -2.049643e-16 -8.881833e-16 1.000000e+00
    outer loop
      vertex   -1.780015e+02 1.579839e+02 1.500283e+01
      vertex   -1.520015e+02 1.579839e+02 1.500283e+01
      vertex   -1.780015e+02 1.599839e+02 1.500283e+01
    endloop
  endfacet
  facet normal -2.732857e-16 -1.776367e-15 1.000000e+00
    outer loop
      vertex   -1.780015e+02 1.599839e+02 1.500283e+01
      vertex   -1.520015e+02 1.579839e+02 1.500283e+01
      vertex   -1.520015e+02 1.599839e+02 1.500283e+01
    endloop
  endfacet
  facet normal 0.000000e+00 -1.000000e+00 -0.000000e+00
    outer loop
      vertex   -1.520015e+02 1.579839e+02 1.500283e+01
      vertex   -1.780015e+02 1.579839e+02 1.500283e+01
      vertex   -1.500015e+02 1.579839e+02 1.300283e+01
    endloop
  endfacet
  facet normal -0.000000e+00 -1.000000e+00 0.000000e+00
    outer loop
      vertex   -1.500015e+02 1.579839e+02 1.300283e+01
      vertex   -1.780015e+02 1.579839e+02 1.500283e+01
      vertex   -1.800015e+02 1.579839e+02 1.300283e+01
    endloop
  endfacet
  facet normal -0.000000e+00 -1.000000e+00 -0.000000e+00
    outer loop
      vertex   -1.500015e+02 1.579839e+02 1.339308e+00
      vertex   -1.800015e+02 1.579839e+02 1.300283e+01
      vertex   -1.800015e+02 1.579839e+02 1.339308e+00
    endloop
  endfacet
  facet normal -0.000000e+00 -1.000000e+00 0.000000e+00
    outer loop
      vertex   -1.500015e+02 1.579839e+02 1.339308e+00
      vertex   -1.500015e+02 1.579839e+02 1.300283e+01
      vertex   -1.800015e+02 1.579839e+02 1.300283e+01
    endloop
  endfacet
  facet normal 1.000000e+00 0.000000e+00 0.000000e+00
    outer loop
      vertex   -1.500015e+02 1.559839e+02 1.300283e+01
      vertex   -1.500015e+02 1.554839e+02 1.300283e+01
      vertex   -1.500015e+02 1.559839e+02 1.339308e+00
    endloop
  endfacet
  facet normal 1.000000e+00 0.000000e+00 0.000000e+00
    outer loop
      vertex   -1.500015e+02 1.559839e+02 1.339308e+00
      vertex   -1.500015e+02 1.554839e+02 1.300283e+01
      vertex   -1.500015e+02 1.554839e+02 2.834552e-03
    endloop
  endfacet
  facet normal 1.000000e+00 0.000000e+00 0.000000e+00
    outer loop
      vertex   -1.500015e+02 1.579839e+02 1.339308e+00
      vertex   -1.500015e+02 1.554839e+02 2.834552e-03
      vertex   -1.500015e+02 1.589839e+02 2.834552e-03
    endloop
  endfacet
  facet normal 1.000000e+00 0.000000e+00 0.000000e+00
    outer loop
      vertex   -1.500015e+02 1.599839e+02 1.300283e+01
      vertex   -1.500015e+02 1.589839e+02 2.834552e-03
      vertex   -1.500015e+02 1.599839e+02 -2.836840e-03
    endloop
  endfacet
  facet normal 1.000000e+00 0.000000e+00 0.000000e+00
    outer loop
      vertex   -1.500015e+02 1.599839e+02 1.300283e+01
      vertex   -1.500015e+02 1.579839e+02 1.339308e+00
      vertex   -1.500015e+02 1.589839e+02 2.834552e-03
    endloop
  endfacet
  facet normal 1.000000e+00 0.000000e+00 0.000000e+00
    outer loop
      vertex   -1.500015e+02 1.599839e+02 1.300283e+01
      vertex   -1.500015e+02 1.579839e+02 1.300283e+01
      vertex   -1.500015e+02 1.579839e+02 1.339308e+00
    endloop
  endfacet
  facet normal 1.000000e+00 -0.000000e+00 0.000000e+00
    outer loop
      vertex   -1.500015e+02 1.559839e+02 1.339308e+00
      vertex   -1.500015e+02 1.554839e+02 2.834552e-03
      vertex   -1.500015e+02 1.579839e+02 1.339308e+00
    endloop
  endfacet
  facet normal 1.000000e+00 -0.000000e+00 0.000000e+00
    outer loop
      vertex   -1.500015e+02 1.589839e+02 2.834552e-03
      vertex   -1.500015e+02 1.589839e+02 -2.836840e-03
      vertex   -1.500015e+02 1.599839e+02 -2.836840e-03
    endloop
  endfacet
  facet normal 7.071068e-01 0.000000e+00 7.071068e-01
    outer loop
      vertex   -1.500015e+02 1.599839e+02 1.300283e+01
      vertex   -1.520015e+02 1.599839e+02 1.500283e+01
      vertex   -1.500015e+02 1.579839e+02 1.300283e+01
    endloop
  endfacet
  facet normal 7.071068e-01 -1.256081e-15 7.071068e-01
    outer loop
      vertex   -1.500015e+02 1.579839e+02 1.300283e+01
      vertex   -1.520015e+02 1.599839e+02 1.500283e+01
      vertex   -1.520015e+02 1.579839e+02 1.500283e+01
    endloop
  endfacet
  facet normal 0.000000e+00 -0.000000e+00 1.000000e+00
    outer loop
      vertex   -1.780015e+02 1.589839e+02 2.002835e+00
      vertex   -1.520015e+02 1.589839e+02 2.002835e+00
      vertex   -1.780015e+02 1.599839e+02 2.002835e+00
    endloop
  endfacet
  facet normal -0.000000e+00 0.000000e+00 1.000000e+00
    outer loop
      vertex   -1.780015e+02 1.599839e+02 2.002835e+00
      vertex   -1.520015e+02 1.589839e+02 2.002835e+00
      vertex   -1.520015e+02 1.599839e+02 2.002835e+00
    endloop
  endfacet
  facet normal 1.000000e+00 0.000000e+00 0.000000e+00
    outer loop
      vertex   -1.780015e+02 1.599839e+02 2.834552e-03
      vertex   -1.780015e+02 1.589839e+02 2.834552e-03
      vertex   -1.780015e+02 1.599839e+02 -2.836840e-03
    endloop
  endfacet
  facet normal 1.000000e+00 0.000000e+00 0.000000e+00
    outer loop
      vertex   -1.780015e+02 1.599839e+02 -2.836840e-03
      vertex   -1.780015e+02 1.589839e+02 2.834552e-03
      vertex   -1.780015e+02 1.589839e+02 -2.836840e-03
    endloop
  endfacet
  facet normal -1.000000e+00 -2.842171e-14 -5.011416e-12
    outer loop
      vertex   -1.520015e+02 1.599839e+02 2.834552e-03
      vertex   -1.520015e+02 1.599839e+02 -2.836840e-03
      vertex   -1.520015e+02 1.589839e+02 2.834552e-03
    endloop
  endfacet
  facet normal -1.000000e+00 -0.000000e+00 -0.000000e+00
    outer loop
      vertex   -1.520015e+02 1.589839e+02 2.834552e-03
      vertex   -1.520015e+02 1.599839e+02 -2.836840e-03
      vertex   -1.520015e+02 1.589839e+02 -2.836840e-03
    endloop
  endfacet
  facet normal 0.000000e+00 0.000000e+00 1.000000e+00
    outer loop
      vertex   -1.500015e+02 1.579839e+02 1.339308e+00
      vertex   -1.800015e+02 1.579839e+02 1.339308e+00
      vertex   -1.500015e+02 1.559839e+02 1.339308e+00
    endloop
  endfacet
  facet normal 0.000000e+00 0.000000e+00 1.000000e+00
    outer loop
      vertex   -1.500015e+02 1.559839e+02 1.339308e+00
      vertex   -1.800015e+02 1.579839e+02 1.339308e+00
      vertex   -1.800015e+02 1.559839e+02 1.339308e+00
    endloop
  endfacet
  facet normal 1.000000e+00 0.000000e+00 0.000000e+00
    outer loop
      vertex   -1.780015e+02 1.599839e+02 2.002835e+00
      vertex   -1.780015e+02 1.599839e+02 9.958796e+00
      vertex   -1.780015e+02 1.589839e+02 2.002835e+00
    endloop
  endfacet
  facet normal 1.000000e+00 0.000000e+00 -0.000000e+00
    outer loop
      vertex   -1.780015e+02 1.589839e+02 2.002835e+00
      vertex   -1.780015e+02 1.599839e+02 9.958796e+00
      vertex   -1.780015e+02 1.589839e+02 9.958796e+00
    endloop
  endfacet
  facet normal 0.000000e+00 0.000000e+00 -1.000000e+00
    outer loop
      vertex   -1.780015e+02 1.589839e+02 -2.836840e-03
      vertex   -1.800015e+02 1.589839e+02 -2.836840e-03
      vertex   -1.780015e+02 1.599839e+02 -2.836840e-03
    endloop
  endfacet
  facet normal -0.000000e+00 0.000000e+00 -1.000000e+00
    outer loop
      vertex   -1.780015e+02 1.599839e+02 -2.836840e-03
      vertex   -1.800015e+02 1.589839e+02 -2.836840e-03
      vertex   -1.800015e+02 1.599839e+02 -2.836840e-03
    endloop
  endfacet
  facet normal 1.150354e-08 -1.000000e+00 0.000000e+00
    outer loop
      vertex   -1.780015e+02 1.589839e+02 2.834552e-03
      vertex   -1.800015e+02 1.589839e+02 2.834552e-03
      vertex   -1.780015e+02 1.589839e+02 -2.836840e-03
    endloop
  endfacet
  facet normal 0.000000e+00 -1.000000e+00 -4.056691e-06
    outer loop
      vertex   -1.780015e+02 1.589839e+02 -2.836840e-03
      vertex   -1.800015e+02 1.589839e+02 2.834552e-03
      vertex   -1.800015e+02 1.589839e+02 -2.836840e-03
    endloop
  endfacet
  facet normal -1.000000e+00 0.000000e+00 3.572379e-15
    outer loop
      vertex   -1.520015e+02 1.599839e+02 2.002835e+00
      vertex   -1.520015e+02 1.589839e+02 2.002835e+00
      vertex   -1.520015e+02 1.599839e+02 9.958796e+00
    endloop
  endfacet
  facet normal -1.000000e+00 0.000000e+00 3.572379e-15
    outer loop
      vertex   -1.520015e+02 1.599839e+02 9.958796e+00
      vertex   -1.520015e+02 1.589839e+02 2.002835e+00
      vertex   -1.520015e+02 1.589839e+02 9.958796e+00
    endloop
  endfacet
  facet normal 0.000000e+00 0.000000e+00 -1.000000e+00
    outer loop
      vertex   -1.500015e+02 1.589839e+02 -2.836840e-03
      vertex   -1.520015e+02 1.589839e+02 -2.836840e-03
      vertex   -1.500015e+02 1.599839e+02 -2.836840e-03
    endloop
  endfacet
  facet normal -0.000000e+00 0.000000e+00 -1.000000e+00
    outer loop
      vertex   -1.500015e+02 1.599839e+02 -2.836840e-03
      vertex   -1.520015e+02 1.589839e+02 -2.836840e-03
      vertex   -1.520015e+02 1.599839e+02 -2.836840e-03
    endloop
  endfacet
  facet normal -1.150354e-08 -1.000000e+00 -4.056691e-06
    outer loop
      vertex   -1.500015e+02 1.589839e+02 2.834552e-03
      vertex   -1.520015e+02 1.589839e+02 2.834552e-03
      vertex   -1.500015e+02 1.589839e+02 -2.836840e-03
    endloop
  endfacet
  facet normal -0.000000e+00 -1.000000e+00 -0.000000e+00
    outer loop
      vertex   -1.500015e+02 1.589839e+02 -2.836840e-03
      vertex   -1.520015e+02 1.589839e+02 2.834552e-03
      vertex   -1.520015e+02 1.589839e+02 -2.836840e-03
    endloop
  endfacet
  facet normal 0.000000e+00 1.000000e+00 7.491818e-09
    outer loop
      vertex   -1.780015e+02 1.589839e+02 2.002835e+00
      vertex   -1.780015e+02 1.589839e+02 9.958796e+00
      vertex   -1.520015e+02 1.589839e+02 2.002835e+00
    endloop
  endfacet
  facet normal -0.000000e+00 1.000000e+00 7.491818e-09
    outer loop
      vertex   -1.520015e+02 1.589839e+02 2.002835e+00
      vertex   -1.780015e+02 1.589839e+02 9.958796e+00
      vertex   -1.520015e+02 1.589839e+02 9.958796e+00
    endloop
  endfacet
  facet normal 0.000000e+00 -0.000000e+00 -1.000000e+00
    outer loop
      vertex   -1.780015e+02 1.599839e+02 9.958796e+00
      vertex   -1.520015e+02 1.599839e+02 9.958796e+00
      vertex   -1.780015e+02 1.589839e+02 9.958796e+00
    endloop
  endfacet
  facet normal 0.000000e+00 0.000000e+00 -1.000000e+00
    outer loop
      vertex   -1.780015e+02 1.589839e+02 9.958796e+00
      vertex   -1.520015e+02 1.599839e+02 9.958796e+00
      vertex   -1.520015e+02 1.589839e+02 9.958796e+00
    endloop
  endfacet
  facet normal -0.000000e+00 1.000000e+00 0.000000e+00
    outer loop
      vertex   -1.800015e+02 1.599839e+02 -2.836840e-03
      vertex   -1.800015e+02 1.599839e+02 1.300283e+01
      vertex   -1.780015e+02 1.599839e+02 9.958796e+00
    endloop
  endfacet
  facet normal -3.731539e-08 1.000000e+00 7.491821e-09
    outer loop
      vertex   -1.780015e+02 1.599839e+02 2.002835e+00
      vertex   -1.800015e+02 1.599839e+02 -2.836840e-03
      vertex   -1.780015e+02 1.599839e+02 9.958796e+00
    endloop
  endfacet
  facet normal -2.980232e-08 1.000000e+00 0.000000e+00
    outer loop
      vertex   -1.780015e+02 1.599839e+02 2.002835e+00
      vertex   -1.780015e+02 1.599839e+02 2.834552e-03
      vertex   -1.800015e+02 1.599839e+02 -2.836840e-03
    endloop
  endfacet
  facet normal 0.000000e+00 1.000000e+00 0.000000e+00
    outer loop
      vertex   -1.780015e+02 1.599839e+02 2.002835e+00
      vertex   -1.520015e+02 1.599839e+02 2.834552e-03
      vertex   -1.780015e+02 1.599839e+02 2.834552e-03
    endloop
  endfacet
  facet normal -0.000000e+00 1.000000e+00 0.000000e+00
    outer loop
      vertex   -1.780015e+02 1.599839e+02 2.002835e+00
      vertex   -1.520015e+02 1.599839e+02 2.002835e+00
      vertex   -1.520015e+02 1.599839e+02 2.834552e-03
    endloop
  endfacet
  facet normal 2.980232e-08 1.000000e+00 -0.000000e+00
    outer loop
      vertex   -1.520015e+02 1.599839e+02 2.834552e-03
      vertex   -1.520015e+02 1.599839e+02 2.002835e+00
      vertex   -1.500015e+02 1.599839e+02 -2.836840e-03
    endloop
  endfacet
  facet normal 0.000000e+00 1.000000e+00 -1.050970e-05
    outer loop
      vertex   -1.520015e+02 1.599839e+02 -2.836840e-03
      vertex   -1.520015e+02 1.599839e+02 2.834552e-03
      vertex   -1.500015e+02 1.599839e+02 -2.836840e-03
    endloop
  endfacet
  facet normal -1.211016e-24 1.000000e+00 4.561239e-09
    outer loop
      vertex   -1.520015e+02 1.599839e+02 1.500283e+01
      vertex   -1.520015e+02 1.599839e+02 9.958796e+00
      vertex   -1.780015e+02 1.599839e+02 1.500283e+01
    endloop
  endfacet
  facet normal 4.561239e-09 1.000000e+00 4.561239e-09
    outer loop
      vertex   -1.520015e+02 1.599839e+02 1.500283e+01
      vertex   -1.500015e+02 1.599839e+02 1.300283e+01
      vertex   -1.520015e+02 1.599839e+02 9.958796e+00
    endloop
  endfacet
  facet normal 8.811075e-09 1.000000e+00 1.769002e-09
    outer loop
      vertex   -1.520015e+02 1.599839e+02 9.958796e+00
      vertex   -1.500015e+02 1.599839e+02 1.300283e+01
      vertex   -1.500015e+02 1.599839e+02 -2.836840e-03
    endloop
  endfacet
  facet normal 3.731539e-08 1.000000e+00 7.491821e-09
    outer loop
      vertex   -1.520015e+02 1.599839e+02 2.002835e+00
      vertex   -1.520015e+02 1.599839e+02 9.958796e+00
      vertex   -1.500015e+02 1.599839e+02 -2.836840e-03
    endloop
  endfacet
  facet normal 0.000000e+00 1.000000e+00 -1.050970e-05
    outer loop
      vertex   -1.780015e+02 1.599839e+02 2.834552e-03
      vertex   -1.780015e+02 1.599839e+02 -2.836840e-03
      vertex   -1.800015e+02 1.599839e+02 -2.836840e-03
    endloop
  endfacet
  facet normal 0.000000e+00 1.000000e+00 4.561239e-09
    outer loop
      vertex   -1.520015e+02 1.599839e+02 9.958796e+00
      vertex   -1.780015e+02 1.599839e+02 9.958796e+00
      vertex   -1.780015e+02 1.599839e+02 1.500283e+01
    endloop
  endfacet
  facet normal 6.942292e-09 1.000000e+00 4.561239e-09
    outer loop
      vertex   -1.780015e+02 1.599839e+02 1.500283e+01
      vertex   -1.780015e+02 1.599839e+02 9.958796e+00
      vertex   -1.800015e+02 1.599839e+02 1.300283e+01
    endloop
  endfacet
endsolid
solid ascii
  facet normal 0.000000e+00 -0.000000e+00 1.000000e+00
    outer loop
      vertex   -1.699323e+02 1.376181e+02 1.700000e+01
      vertex   -1.549323e+02 1.376181e+02 1.700000e+01
      vertex   -1.699323e+02 1.416181e+02 1.700000e+01
    endloop
  endfacet
  facet normal -0.000000e+00 0.000000e+00 1.000000e+00
    outer loop
      vertex   -1.699323e+02 1.416181e+02 1.700000e+01
      vertex   -1.549323e+02 1.376181e+02 1.700000e+01
      vertex   -1.549323e+02 1.416181e+02 1.700000e+01
    endloop
  endfacet
  facet normal -7.071068e-01 0.000000e+00 7.071068e-01
    outer loop
      vertex   -1.749085e+02 1.346132e+02 1.000000e+00
      vertex   -1.739085e+02 1.346132e+02 2.000000e+00
      vertex   -1.749085e+02 1.446132e+02 1.000000e+00
    endloop
  endfacet
  facet normal -7.071068e-01 1.884111e-16 7.071068e-01
    outer loop
      vertex   -1.749085e+02 1.446132e+02 1.000000e+00
      vertex   -1.739085e+02 1.346132e+02 2.000000e+00
      vertex   -1.739085e+02 1.446132e+02 2.000000e+00
    endloop
  endfacet
  facet normal -1.000000e+00 0.000000e+00 -0.000000e+00
    outer loop
      vertex   -1.749085e+02 1.346132e+02 1.000000e+00
      vertex   -1.749085e+02 1.446132e+02 1.000000e+00
      vertex   -1.749085e+02 1.346132e+02 3.330669e-15
    endloop
  endfacet
  facet normal -1.000000e+00 0.000000e+00 0.000000e+00
    outer loop
      vertex   -1.749085e+02 1.346132e+02 3.330669e-15
      vertex   -1.749085e+02 1.446132e+02 1.000000e+00
      vertex   -1.749085e+02 1.446132e+02 2.775558e-16
    endloop
  endfacet
  facet normal 1.221245e-16 -3.053113e-16 -1.000000e+00
    outer loop
      vertex   -1.749085e+02 1.446132e+02 2.775558e-16
      vertex   -1.499085e+02 1.446132e+02 3.330669e-15
      vertex   -1.749085e+02 1.346132e+02 3.330669e-15
    endloop
  endfacet
  facet normal 0.000000e+00 0.000000e+00 -1.000000e+00
    outer loop
      vertex   -1.749085e+02 1.346132e+02 3.330669e-15
      vertex   -1.499085e+02 1.446132e+02 3.330669e-15
      vertex   -1.499085e+02 1.346132e+02 3.330669e-15
    endloop
  endfacet
  facet normal 1.000000e+00 0.000000e+00 0.000000e+00
    outer loop
      vertex   -1.499085e+02 1.446132e+02 1.000000e+00
      vertex   -1.499085e+02 1.346132e+02 1.000000e+00
      vertex   -1.499085e+02 1.446132e+02 3.330669e-15
    endloop
  endfacet
  facet normal 1.000000e+00 0.000000e+00 0.000000e+00
    outer loop
      vertex   -1.499085e+02 1.446132e+02 3.330669e-15
      vertex   -1.499085e+02 1.346132e+02 1.000000e+00
      vertex   -1.499085e+02 1.346132e+02 3.330669e-15
    endloop
  endfacet
  facet normal 7.071068e-01 0.000000e+00 7.071068e-01
    outer loop
      vertex   -1.499085e+02 1.446132e+02 1.000000e+00
      vertex   -1.509085e+02 1.446132e+02 2.000000e+00
      vertex   -1.499085e+02 1.346132e+02 1.000000e+00
    endloop
  endfacet
  facet normal 7.071068e-01 0.000000e+00 7.071068e-01
    outer loop
      vertex   -1.499085e+02 1.346132e+02 1.000000e+00
      vertex   -1.509085e+02 1.446132e+02 2.000000e+00
      vertex   -1.509085e+02 1.346132e+02 2.000000e+00
    endloop
  endfacet
  facet normal -0.000000e+00 8.881784e-17 1.000000e+00
    outer loop
      vertex   -1.529085e+02 1.346132e+02 2.000000e+00
      vertex   -1.509085e+02 1.346132e+02 2.000000e+00
      vertex   -1.529085e+02 1.446132e+02 2.000000e+00
    endloop
  endfacet
  facet normal -4.440892e-16 0.000000e+00 1.000000e+00
    outer loop
      vertex   -1.529085e+02 1.446132e+02 2.000000e+00
      vertex   -1.509085e+02 1.346132e+02 2.000000e+00
      vertex   -1.509085e+02 1.446132e+02 2.000000e+00
    endloop
  endfacet
  facet normal -0.000000e+00 -1.000000e+00 -0.000000e+00
    outer loop
      vertex   -1.509085e+02 1.346132e+02 2.000000e+00
      vertex   -1.529085e+02 1.346132e+02 2.000000e+00
      vertex   -1.499085e+02 1.346132e+02 1.000000e+00
    endloop
  endfacet
  facet normal 0.000000e+00 -1.000000e+00 0.000000e+00
    outer loop
      vertex   -1.499085e+02 1.346132e+02 1.000000e+00
      vertex   -1.529085e+02 1.346132e+02 2.000000e+00
      vertex   -1.719085e+02 1.346132e+02 2.000000e+00
    endloop
  endfacet
  facet normal 0.000000e+00 -1.000000e+00 0.000000e+00
    outer loop
      vertex   -1.749085e+02 1.346132e+02 1.000000e+00
      vertex   -1.719085e+02 1.346132e+02 2.000000e+00
      vertex   -1.739085e+02 1.346132e+02 2.000000e+00
    endloop
  endfacet
  facet normal 0.000000e+00 -1.000000e+00 0.000000e+00
    outer loop
      vertex   -1.749085e+02 1.346132e+02 1.000000e+00
      vertex   -1.499085e+02 1.346132e+02 1.000000e+00
      vertex   -1.719085e+02 1.346132e+02 2.000000e+00
    endloop
  endfacet
  facet normal 0.000000e+00 -1.000000e+00 0.000000e+00
    outer loop
      vertex   -1.749085e+02 1.346132e+02 1.000000e+00
      vertex   -1.499085e+02 1.346132e+02 3.330669e-15
      vertex   -1.499085e+02 1.346132e+02 1.000000e+00
    endloop
  endfacet
  facet normal 0.000000e+00 -1.000000e+00 0.000000e+00
    outer loop
      vertex   -1.749085e+02 1.346132e+02 1.000000e+00
      vertex   -1.749085e+02 1.346132e+02 3.330669e-15
      vertex   -1.499085e+02 1.346132e+02 3.330669e-15
    endloop
  endfacet
  facet normal -0.000000e+00 -1.000000e+00 -0.000000e+00
    outer loop
      vertex   -1.539085e+02 1.346132e+02 3.000000e+00
      vertex   -1.709085e+02 1.346132e+02 3.000000e+00
      vertex   -1.529085e+02 1.346132e+02 2.000000e+00
    endloop
  endfacet
  facet normal -0.000000e+00 -1.000000e+00 0.000000e+00
    outer loop
      vertex   -1.529085e+02 1.346132e+02 2.000000e+00
      vertex   -1.709085e+02 1.346132e+02 3.000000e+00
      vertex   -1.719085e+02 1.346132e+02 2.000000e+00
    endloop
  endfacet
  facet normal 0.000000e+00 2.664535e-16 1.000000e+00
    outer loop
      vertex   -1.719085e+02 1.446132e+02 2.000000e+00
      vertex   -1.739085e+02 1.446132e+02 2.000000e+00
      vertex   -1.719085e+02 1.346132e+02 2.000000e+00
    endloop
  endfacet
  facet normal 0.000000e+00 2.664535e-16 1.000000e+00
    outer loop
      vertex   -1.719085e+02 1.346132e+02 2.000000e+00
      vertex   -1.739085e+02 1.446132e+02 2.000000e+00
      vertex   -1.739085e+02 1.346132e+02 2.000000e+00
    endloop
  endfacet
  facet normal 0.000000e+00 1.000000e+00 0.000000e+00
    outer loop
      vertex   -1.509085e+02 1.446132e+02 2.000000e+00
      vertex   -1.499085e+02 1.446132e+02 1.000000e+00
      vertex   -1.529085e+02 1.446132e+02 2.000000e+00
    endloop
  endfacet
  facet normal 0.000000e+00 1.000000e+00 0.000000e+00
    outer loop
      vertex   -1.529085e+02 1.446132e+02 2.000000e+00
      vertex   -1.499085e+02 1.446132e+02 1.000000e+00
      vertex   -1.749085e+02 1.446132e+02 1.000000e+00
    endloop
  endfacet
  facet normal 0.000000e+00 1.000000e+00 -0.000000e+00
    outer loop
      vertex   -1.719085e+02 1.446132e+02 2.000000e+00
      vertex   -1.749085e+02 1.446132e+02 1.000000e+00
      vertex   -1.739085e+02 1.446132e+02 2.000000e+00
    endloop
  endfacet
  facet normal -0.000000e+00 1.000000e+00 0.000000e+00
    outer loop
      vertex   -1.719085e+02 1.446132e+02 2.000000e+00
      vertex   -1.529085e+02 1.446132e+02 2.000000e+00
      vertex   -1.749085e+02 1.446132e+02 1.000000e+00
    endloop
  endfacet
  facet normal -0.000000e+00 1.000000e+00 0.000000e+00
    outer loop
      vertex   -1.719085e+02 1.446132e+02 2.000000e+00
      vertex   -1.539085e+02 1.446132e+02 3.000000e+00
      vertex   -1.529085e+02 1.446132e+02 2.000000e+00
    endloop
  endfacet
  facet normal -0.000000e+00 1.000000e+00 0.000000e+00
    outer loop
      vertex   -1.719085e+02 1.446132e+02 2.000000e+00
      vertex   -1.709085e+02 1.446132e+02 3.000000e+00
      vertex   -1.539085e+02 1.446132e+02 3.000000e+00
    endloop
  endfacet
  facet normal 0.000000e+00 1.000000e+00 -0.000000e+00
    outer loop
      vertex   -1.499085e+02 1.446132e+02 3.330669e-15
      vertex   -1.749085e+02 1.446132e+02 2.775558e-16
      vertex   -1.499085e+02 1.446132e+02 1.000000e+00
    endloop
  endfacet
  facet normal 0.000000e+00 1.000000e+00 -0.000000e+00
    outer loop
      vertex   -1.499085e+02 1.446132e+02 1.000000e+00
      vertex   -1.749085e+02 1.446132e+02 2.775558e-16
      vertex   -1.749085e+02 1.446132e+02 1.000000e+00
    endloop
  endfacet
  facet normal -1.000000e+00 0.000000e+00 0.000000e+00
    outer loop
      vertex   -1.699085e+02 1.431181e+02 4.000000e+00
      vertex   -1.699085e+02 1.426181e+02 4.000000e+00
      vertex   -1.699085e+02 1.426181e+02 5.000000e+00
    endloop
  endfacet
  facet normal -0.000000e+00 7.071068e-01 7.071068e-01
    outer loop
      vertex   -1.699085e+02 1.436132e+02 4.000000e+00
      vertex   -1.549085e+02 1.436132e+02 4.000000e+00
      vertex   -1.709085e+02 1.446132e+02 3.000000e+00
    endloop
  endfacet
  facet normal 1.847168e-17 7.071068e-01 7.071068e-01
    outer loop
      vertex   -1.709085e+02 1.446132e+02 3.000000e+00
      vertex   -1.549085e+02 1.436132e+02 4.000000e+00
      vertex   -1.539085e+02 1.446132e+02 3.000000e+00
    endloop
  endfacet
  facet normal 7.071068e-01 -2.920372e-15 7.071068e-01
    outer loop
      vertex   -1.549085e+02 1.356132e+02 4.000000e+00
      vertex   -1.539085e+02 1.346132e+02 3.000000e+00
      vertex   -1.539085e+02 1.446132e+02 3.000000e+00
    endloop
  endfacet
  facet normal 7.071068e-01 0.000000e+00 7.071068e-01
    outer loop
      vertex   -1.549085e+02 1.436132e+02 4.000000e+00
      vertex   -1.549085e+02 1.356132e+02 4.000000e+00
      vertex   -1.539085e+02 1.446132e+02 3.000000e+00
    endloop
  endfacet
  facet normal 7.071068e-01 6.280370e-17 7.071068e-01
    outer loop
      vertex   -1.529085e+02 1.446132e+02 2.000000e+00
      vertex   -1.539085e+02 1.446132e+02 3.000000e+00
      vertex   -1.529085e+02 1.346132e+02 2.000000e+00
    endloop
  endfacet
  facet normal 7.071068e-01 -2.920372e-15 7.071068e-01
    outer loop
      vertex   -1.529085e+02 1.346132e+02 2.000000e+00
      vertex   -1.539085e+02 1.446132e+02 3.000000e+00
      vertex   -1.539085e+02 1.346132e+02 3.000000e+00
    endloop
  endfacet
  facet normal 0.000000e+00 -7.071068e-01 7.071068e-01
    outer loop
      vertex   -1.549085e+02 1.356132e+02 4.000000e+00
      vertex   -1.699085e+02 1.356132e+02 4.000000e+00
      vertex   -1.539085e+02 1.346132e+02 3.000000e+00
    endloop
  endfacet
  facet normal 3.509618e-16 -7.071068e-01 7.071068e-01
    outer loop
      vertex   -1.539085e+02 1.346132e+02 3.000000e+00
      vertex   -1.699085e+02 1.356132e+02 4.000000e+00
      vertex   -1.709085e+02 1.346132e+02 3.000000e+00
    endloop
  endfacet
  facet normal -7.071068e-01 1.884111e-16 7.071068e-01
    outer loop
      vertex   -1.719085e+02 1.446132e+02 2.000000e+00
      vertex   -1.719085e+02 1.346132e+02 2.000000e+00
      vertex   -1.709085e+02 1.446132e+02 3.000000e+00
    endloop
  endfacet
  facet normal -7.071068e-01 -3.454203e-16 7.071068e-01
    outer loop
      vertex   -1.709085e+02 1.446132e+02 3.000000e+00
      vertex   -1.719085e+02 1.346132e+02 2.000000e+00
      vertex   -1.709085e+02 1.346132e+02 3.000000e+00
    endloop
  endfacet
  facet normal -7.071068e-01 -2.512148e-15 7.071068e-01
    outer loop
      vertex   -1.699085e+02 1.366181e+02 4.000000e+00
      vertex   -1.709085e+02 1.346132e+02 3.000000e+00
      vertex   -1.699085e+02 1.361181e+02 4.000000e+00
    endloop
  endfacet
  facet normal -7.071068e-01 -3.454203e-16 7.071068e-01
    outer loop
      vertex   -1.699085e+02 1.366181e+02 4.000000e+00
      vertex   -1.709085e+02 1.446132e+02 3.000000e+00
      vertex   -1.709085e+02 1.346132e+02 3.000000e+00
    endloop
  endfacet
  facet normal -7.071068e-01 0.000000e+00 7.071068e-01
    outer loop
      vertex   -1.699085e+02 1.366181e+02 4.000000e+00
      vertex   -1.699085e+02 1.426181e+02 4.000000e+00
      vertex   -1.709085e+02 1.446132e+02 3.000000e+00
    endloop
  endfacet
  facet normal -7.071068e-01 2.512148e-15 7.071068e-01
    outer loop
      vertex   -1.709085e+02 1.446132e+02 3.000000e+00
      vertex   -1.699085e+02 1.426181e+02 4.000000e+00
      vertex   -1.699085e+02 1.431181e+02 4.000000e+00
    endloop
  endfacet
  facet normal -7.071068e-01 -2.537223e-15 7.071068e-01
    outer loop
      vertex   -1.699085e+02 1.436132e+02 4.000000e+00
      vertex   -1.709085e+02 1.446132e+02 3.000000e+00
      vertex   -1.699085e+02 1.431181e+02 4.000000e+00
    endloop
  endfacet
  facet normal -7.071068e-01 2.487564e-15 7.071068e-01
    outer loop
      vertex   -1.709085e+02 1.346132e+02 3.000000e+00
      vertex   -1.699085e+02 1.356132e+02 4.000000e+00
      vertex   -1.699085e+02 1.361181e+02 4.000000e+00
    endloop
  endfacet
  facet normal -1.000000e+00 -0.000000e+00 0.000000e+00
    outer loop
      vertex   -1.699085e+02 1.366181e+02 4.000000e+00
      vertex   -1.699085e+02 1.361181e+02 4.000000e+00
      vertex   -1.699085e+02 1.366181e+02 5.000000e+00
    endloop
  endfacet
  facet normal -0.000000e+00 -0.000000e+00 -1.000000e+00
    outer loop
      vertex   -1.699085e+02 1.426181e+02 4.000000e+00
      vertex   -1.699085e+02 1.366181e+02 4.000000e+00
      vertex   -1.699323e+02 1.426181e+02 4.000000e+00
    endloop
  endfacet
  facet normal -0.000000e+00 -0.000000e+00 -1.000000e+00
    outer loop
      vertex   -1.699323e+02 1.426181e+02 4.000000e+00
      vertex   -1.699085e+02 1.366181e+02 4.000000e+00
      vertex   -1.699323e+02 1.366181e+02 4.000000e+00
    endloop
  endfacet
  facet normal 0.000000e+00 1.000000e+00 -0.000000e+00
    outer loop
      vertex   -1.549323e+02 1.426181e+02 5.000000e+00
      vertex   -1.699085e+02 1.426181e+02 5.000000e+00
      vertex   -1.549323e+02 1.426181e+02 1.600000e+01
    endloop
  endfacet
  facet normal 0.000000e+00 1.000000e+00 0.000000e+00
    outer loop
      vertex   -1.549323e+02 1.426181e+02 1.600000e+01
      vertex   -1.699085e+02 1.426181e+02 5.000000e+00
      vertex   -1.699323e+02 1.426181e+02 1.600000e+01
    endloop
  endfacet
  facet normal 0.000000e+00 1.000000e+00 0.000000e+00
    outer loop
      vertex   -1.699323e+02 1.426181e+02 1.600000e+01
      vertex   -1.699085e+02 1.426181e+02 5.000000e+00
      vertex   -1.699323e+02 1.426181e+02 4.000000e+00
    endloop
  endfacet
  facet normal -0.000000e+00 1.000000e+00 0.000000e+00
    outer loop
      vertex   -1.699323e+02 1.426181e+02 4.000000e+00
      vertex   -1.699085e+02 1.426181e+02 5.000000e+00
      vertex   -1.699085e+02 1.426181e+02 4.000000e+00
    endloop
  endfacet
  facet normal -1.326119e-16 8.944272e-01 4.472136e-01
    outer loop
      vertex   -1.699085e+02 1.426181e+02 5.000000e+00
      vertex   -1.549323e+02 1.426181e+02 5.000000e+00
      vertex   -1.699085e+02 1.431181e+02 4.000000e+00
    endloop
  endfacet
  facet normal 0.000000e+00 8.944272e-01 4.472136e-01
    outer loop
      vertex   -1.699085e+02 1.431181e+02 4.000000e+00
      vertex   -1.549323e+02 1.426181e+02 5.000000e+00
      vertex   -1.549323e+02 1.431181e+02 4.000000e+00
    endloop
  endfacet
  facet normal -7.476787e-14 0.000000e+00 1.000000e+00
    outer loop
      vertex   -1.549323e+02 1.361181e+02 4.000000e+00
      vertex   -1.549085e+02 1.436132e+02 4.000000e+00
      vertex   -1.549323e+02 1.431181e+02 4.000000e+00
    endloop
  endfacet
  facet normal -7.476787e-14 0.000000e+00 1.000000e+00
    outer loop
      vertex   -1.549323e+02 1.361181e+02 4.000000e+00
      vertex   -1.549085e+02 1.356132e+02 4.000000e+00
      vertex   -1.549085e+02 1.436132e+02 4.000000e+00
    endloop
  endfacet
  facet normal -0.000000e+00 3.517946e-15 1.000000e+00
    outer loop
      vertex   -1.549323e+02 1.361181e+02 4.000000e+00
      vertex   -1.699085e+02 1.356132e+02 4.000000e+00
      vertex   -1.549085e+02 1.356132e+02 4.000000e+00
    endloop
  endfacet
  facet normal -6.676311e-30 3.517946e-15 1.000000e+00
    outer loop
      vertex   -1.549323e+02 1.361181e+02 4.000000e+00
      vertex   -1.699085e+02 1.361181e+02 4.000000e+00
      vertex   -1.699085e+02 1.356132e+02 4.000000e+00
    endloop
  endfacet
  facet normal 0.000000e+00 -3.588175e-15 1.000000e+00
    outer loop
      vertex   -1.549085e+02 1.436132e+02 4.000000e+00
      vertex   -1.699085e+02 1.436132e+02 4.000000e+00
      vertex   -1.549323e+02 1.431181e+02 4.000000e+00
    endloop
  endfacet
  facet normal 0.000000e+00 -3.588175e-15 1.000000e+00
    outer loop
      vertex   -1.549323e+02 1.431181e+02 4.000000e+00
      vertex   -1.699085e+02 1.436132e+02 4.000000e+00
      vertex   -1.699085e+02 1.431181e+02 4.000000e+00
    endloop
  endfacet
  facet normal 1.697432e-15 -8.944272e-01 4.472136e-01
    outer loop
      vertex   -1.699085e+02 1.361181e+02 4.000000e+00
      vertex   -1.549323e+02 1.361181e+02 4.000000e+00
      vertex   -1.699085e+02 1.366181e+02 5.000000e+00
    endloop
  endfacet
  facet normal -2.652237e-17 -8.944272e-01 4.472136e-01
    outer loop
      vertex   -1.699085e+02 1.366181e+02 5.000000e+00
      vertex   -1.549323e+02 1.361181e+02 4.000000e+00
      vertex   -1.549323e+02 1.366181e+02 5.000000e+00
    endloop
  endfacet
  facet normal -0.000000e+00 -1.000000e+00 0.000000e+00
    outer loop
      vertex   -1.699085e+02 1.366181e+02 4.000000e+00
      vertex   -1.699085e+02 1.366181e+02 5.000000e+00
      vertex   -1.699323e+02 1.366181e+02 4.000000e+00
    endloop
  endfacet
  facet normal 0.000000e+00 -1.000000e+00 0.000000e+00
    outer loop
      vertex   -1.699323e+02 1.366181e+02 4.000000e+00
      vertex   -1.699085e+02 1.366181e+02 5.000000e+00
      vertex   -1.699323e+02 1.366181e+02 1.600000e+01
    endloop
  endfacet
  facet normal 0.000000e+00 -1.000000e+00 0.000000e+00
    outer loop
      vertex   -1.699323e+02 1.366181e+02 1.600000e+01
      vertex   -1.699085e+02 1.366181e+02 5.000000e+00
      vertex   -1.549323e+02 1.366181e+02 1.600000e+01
    endloop
  endfacet
  facet normal 0.000000e+00 -1.000000e+00 -0.000000e+00
    outer loop
      vertex   -1.549323e+02 1.366181e+02 1.600000e+01
      vertex   -1.699085e+02 1.366181e+02 5.000000e+00
      vertex   -1.549323e+02 1.366181e+02 5.000000e+00
    endloop
  endfacet
  facet normal -1.000000e+00 0.000000e+00 -0.000000e+00
    outer loop
      vertex   -1.699323e+02 1.366181e+02 1.600000e+01
      vertex   -1.699323e+02 1.376181e+02 1.700000e+01
      vertex   -1.699323e+02 1.366181e+02 4.000000e+00
    endloop
  endfacet
  facet normal -1.000000e+00 0.000000e+00 0.000000e+00
    outer loop
      vertex   -1.699323e+02 1.366181e+02 4.000000e+00
      vertex   -1.699323e+02 1.376181e+02 1.700000e+01
      vertex   -1.699323e+02 1.416181e+02 1.700000e+01
    endloop
  endfacet
  facet normal -1.000000e+00 0.000000e+00 0.000000e+00
    outer loop
      vertex   -1.699323e+02 1.426181e+02 4.000000e+00
      vertex   -1.699323e+02 1.416181e+02 1.700000e+01
      vertex   -1.699323e+02 1.426181e+02 1.600000e+01
    endloop
  endfacet
  facet normal -1.000000e+00 0.000000e+00 0.000000e+00
    outer loop
      vertex   -1.699323e+02 1.426181e+02 4.000000e+00
      vertex   -1.699323e+02 1.366181e+02 4.000000e+00
      vertex   -1.699323e+02 1.416181e+02 1.700000e+01
    endloop
  endfacet
  facet normal -0.000000e+00 7.071068e-01 7.071068e-01
    outer loop
      vertex   -1.699323e+02 1.416181e+02 1.700000e+01
      vertex   -1.549323e+02 1.416181e+02 1.700000e+01
      vertex   -1.699323e+02 1.426181e+02 1.600000e+01
    endloop
  endfacet
  facet normal 1.674765e-16 7.071068e-01 7.071068e-01
    outer loop
      vertex   -1.699323e+02 1.426181e+02 1.600000e+01
      vertex   -1.549323e+02 1.416181e+02 1.700000e+01
      vertex   -1.549323e+02 1.426181e+02 1.600000e+01
    endloop
  endfacet
  facet normal 1.000000e+00 -0.000000e+00 0.000000e+00
    outer loop
      vertex   -1.549323e+02 1.366181e+02 1.600000e+01
      vertex   -1.549323e+02 1.366181e+02 5.000000e+00
      vertex   -1.549323e+02 1.376181e+02 1.700000e+01
    endloop
  endfacet
  facet normal 1.000000e+00 0.000000e+00 0.000000e+00
    outer loop
      vertex   -1.549323e+02 1.376181e+02 1.700000e+01
      vertex   -1.549323e+02 1.366181e+02 5.000000e+00
      vertex   -1.549323e+02 1.426181e+02 5.000000e+00
    endloop
  endfacet
  facet normal 1.000000e+00 -0.000000e+00 0.000000e+00
    outer loop
      vertex   -1.549323e+02 1.416181e+02 1.700000e+01
      vertex   -1.549323e+02 1.426181e+02 5.000000e+00
      vertex   -1.549323e+02 1.426181e+02 1.600000e+01
    endloop
  endfacet
  facet normal 1.000000e+00 0.000000e+00 0.000000e+00
    outer loop
      vertex   -1.549323e+02 1.416181e+02 1.700000e+01
      vertex   -1.549323e+02 1.376181e+02 1.700000e+01
      vertex   -1.549323e+02 1.426181e+02 5.000000e+00
    endloop
  endfacet
  facet normal 1.000000e+00 0.000000e+00 -0.000000e+00
    outer loop
      vertex   -1.549323e+02 1.361181e+02 4.000000e+00
      vertex   -1.549323e+02 1.431181e+02 4.000000e+00
      vertex   -1.549323e+02 1.366181e+02 5.000000e+00
    endloop
  endfacet
  facet normal 1.000000e+00 -0.000000e+00 -0.000000e+00
    outer loop
      vertex   -1.549323e+02 1.366181e+02 5.000000e+00
      vertex   -1.549323e+02 1.431181e+02 4.000000e+00
      vertex   -1.549323e+02 1.426181e+02 5.000000e+00
    endloop
  endfacet
  facet normal 0.000000e+00 -7.071068e-01 7.071068e-01
    outer loop
      vertex   -1.549323e+02 1.376181e+02 1.700000e+01
      vertex   -1.699323e+02 1.376181e+02 1.700000e+01
      vertex   -1.549323e+02 1.366181e+02 1.600000e+01
    endloop
  endfacet
  facet normal 0.000000e+00 -7.071068e-01 7.071068e-01
    outer loop
      vertex   -1.549323e+02 1.366181e+02 1.600000e+01
      vertex   -1.699323e+02 1.376181e+02 1.700000e+01
      vertex   -1.699323e+02 1.366181e+02 1.600000e+01
    endloop
  endfacet
endsolid
